<?xml version="1.0" encoding="UTF-8"?>
<svg width="2624px" height="512px" viewBox="0 0 2624 512" version="1.1" xmlns="http://www.w3.org/2000/svg" xmlns:xlink="http://www.w3.org/1999/xlink">
    <title>logo文字组合</title>
    <defs>
        <path d="M216,0 C229.254834,-2.4348735e-15 240,10.745166 240,24 L240,80 C240,93.254834 229.254834,104 216,104 L176.023,104 L128.95473,164.358974 L128,163.21 L128,260 C128,273.254834 117.254834,284 104,284 L24,284 C10.745166,284 1.623249e-15,273.254834 0,260 L0,152 C-1.623249e-15,138.745166 10.745166,128 24,128 L121.573,128 L152,89.991 L152,24 C152,10.745166 162.745166,2.4348735e-15 176,0 L216,0 Z" id="path-1"></path>
        <path d="M0,24 L0,224 C1.623249e-15,237.254834 10.745166,248 24,248 L67.9933263,248 C81.2481603,248 91.9933263,237.254834 91.9933263,224 L91.9933263,96 C91.9933263,91.581722 95.5750483,88 99.9933263,88 L184.011585,88 L184.011585,88 L188.011585,88 C249.867477,88 300.011585,138.144108 300.011585,200 L300.011585,244 C300.011585,303.646753 251.658338,352 192.011585,352 L192.011585,352 L192.011585,352 C180.96589,352 172.011585,360.954305 172.011585,372 L172.011585,420 C172.011585,433.254834 182.756751,444 196.011585,444 L196.011585,444 L196.011585,444 L200.011585,444 C306.050257,444 392.011585,358.038672 392.011585,252 L392.011585,192 C392.011585,85.961328 306.050257,-1.9478988e-14 200.011585,0 L24,0 C10.745166,5.98758718e-15 1.92946468e-15,10.745166 0,24 Z" id="path-3"></path>
    </defs>
    <g id="页面-1" stroke="none" stroke-width="1" fill="none" fill-rule="evenodd">
        <g id="logo文字组合">
            <rect id="矩形" x="0" y="0" width="2624" height="512"></rect>
            <g id="logo">
                <rect id="矩形" x="0" y="0" width="512" height="512"></rect>
                <g id="编组-4" transform="translate(60.000000, 192.000000)">
                    <mask id="mask-2" fill="white">
                        <use xlink:href="#path-1"></use>
                    </mask>
                    <use id="形状结合" fill="#69C0FF" xlink:href="#path-1"></use>
                </g>
                <g id="编组-3" transform="translate(59.988415, 32.000000)">
                    <mask id="mask-4" fill="white">
                        <use xlink:href="#path-3"></use>
                    </mask>
                    <use id="路径-8" fill="#4678FF" xlink:href="#path-3"></use>
                </g>
            </g>
            <g id="编组" transform="translate(640.000000, 128.000000)" fill="#FFFFFF" fill-rule="nonzero">
                <g id="DATALINK">
                    <path d="M112.894099,256 C133.74391,256 151.796796,252.653595 167.052755,245.960784 C182.308714,239.267974 194.767748,230.125117 204.429855,218.532213 C214.091963,206.939309 221.274977,193.374416 225.978898,177.837535 C230.682819,162.300654 233.034779,145.688142 233.034779,128 C233.034779,110.311858 230.682819,93.6993464 225.978898,78.162465 C221.274977,62.6255836 214.091963,49.0606909 204.429855,37.4677871 C194.767748,25.8748833 182.308714,16.7320261 167.052755,10.0392157 C151.796796,3.34640523 133.74391,0 112.894099,0 L24,0 C10.745166,2.4348735e-15 -1.15310087e-13,10.745166 -1.13686838e-13,24 L-1.13686838e-13,232 C-1.12063589e-13,245.254834 10.745166,256 24,256 L112.894099,256 L112.894099,256 Z M47.674873,211.428571 L47.674873,44.5714286 C47.674873,40.1531506 51.256595,36.5714286 55.674873,36.5714286 L94.586948,36.5714286 L94.586948,36.5714286 C113.148365,36.5714286 128.340758,38.9019608 140.164127,43.5630252 C151.987495,48.2240896 161.268204,54.6778711 168.006252,62.9243697 C174.744301,71.1708683 179.321089,80.8515406 181.736616,91.9663866 C184.152143,103.081232 185.359906,115.092437 185.359906,128 C185.359906,140.907563 184.152143,152.918768 181.736616,164.033613 C179.321089,175.148459 174.744301,184.829132 168.006252,193.07563 C161.268204,201.322129 151.987495,207.77591 140.164127,212.436975 C128.340758,217.098039 113.148365,219.428571 94.586948,219.428571 L55.674873,219.428571 C51.256595,219.428571 47.674873,215.846849 47.674873,211.428571 Z M294.866742,250.822731 L318.468152,188.235294 L318.468152,188.235294 L427.166862,188.235294 L450.768272,250.822731 C451.943017,253.93798 454.924353,256 458.253737,256 L491.905008,256 C496.323286,256 499.905008,252.418278 499.905008,248 C499.905008,246.9598 499.702148,245.929584 499.307788,244.967037 L403.013387,9.93407488 C400.551438,3.92501113 394.701675,-1.19290022e-15 388.207829,0 L358.967595,0 C352.46631,1.76267089e-14 346.611396,3.93388891 344.154307,9.95297716 L248.213926,244.976489 C246.544086,249.067065 248.506482,253.736805 252.597058,255.406644 C253.556926,255.798478 254.583806,256 255.62057,256 L287.381277,256 C290.710661,256 293.691997,253.93798 294.866742,250.822731 Z M414.580696,154.173669 L331.435717,154.173669 L372.626807,44.1008403 L373.771004,44.1008403 L414.580696,154.173669 Z M637.699101,240 L637.699101,38.7226891 L637.699101,38.7226891 L708.276671,38.7226891 C717.113227,38.7226891 724.276671,31.5592451 724.276671,22.7226891 L724.276671,16 C724.276671,7.163444 717.113227,1.40736277e-14 708.276671,0 L519.828058,0 C510.991502,1.623249e-15 503.828058,7.163444 503.828058,16 L503.828058,22.7226891 C503.828058,31.5592451 510.991502,38.7226891 519.828058,38.7226891 L590.024228,38.7226891 L590.024228,38.7226891 L590.024228,240 C590.024228,248.836556 597.187672,256 606.024228,256 L621.699101,256 C630.535657,256 637.699101,248.836556 637.699101,240 Z M775.429462,250.822731 L799.030871,188.235294 L799.030871,188.235294 L907.729582,188.235294 L931.330992,250.822731 C932.505736,253.93798 935.487072,256 938.816457,256 L972.467728,256 C976.886006,256 980.467728,252.418278 980.467728,248 C980.467728,246.9598 980.264868,245.929584 979.870507,244.967037 L883.576107,9.93407488 C881.114157,3.92501113 875.264395,-1.19290022e-15 868.770548,0 L839.530315,0 C833.02903,1.1942667e-15 827.174115,3.93388891 824.717027,9.95297716 L728.776645,244.976489 C727.106806,249.067065 729.069202,253.736805 733.159778,255.406644 C734.119646,255.798478 735.146526,256 736.18329,256 L767.943997,256 C771.273381,256 774.254717,253.93798 775.429462,250.822731 Z M895.143415,154.173669 L811.998437,154.173669 L853.189527,44.1008403 L854.333724,44.1008403 L895.143415,154.173669 Z M1302.47753,240 L1302.47753,233.277311 C1302.47753,224.440755 1295.31409,217.277311 1286.47753,217.277311 L1172.0297,217.277311 C1167.61142,217.277311 1164.0297,213.695589 1164.0297,209.277311 L1164.0297,16 C1164.0297,7.163444 1156.86626,-1.623249e-15 1148.0297,0 L1132.35483,0 C1123.51827,-1.53107837e-16 1116.35483,7.163444 1116.35483,16 L1116.35483,232 C1116.35483,245.254834 1127.09999,256 1140.35483,256 L1286.47753,256 C1295.31409,256 1302.47753,248.836556 1302.47753,240 Z M1382.95272,240 L1382.95272,16 C1382.95272,7.163444 1375.78927,-3.39960584e-15 1366.95272,0 L1351.27784,0 C1342.44129,-1.53107837e-16 1335.27784,7.163444 1335.27784,16 L1335.27784,240 C1335.27784,248.836556 1342.44129,256 1351.27784,256 L1366.95272,256 C1375.78927,256 1382.95272,248.836556 1382.95272,240 Z M1484.78624,240 L1484.78624,67.7647059 L1484.78624,67.7647059 L1485.93044,67.7647059 L1605.14358,248.799594 C1608.10343,253.29437 1613.12468,256 1618.50648,256 L1644.22978,256 C1653.06633,256 1660.22978,248.836556 1660.22978,240 L1660.22978,16 C1660.22978,7.163444 1653.06633,-3.39960584e-15 1644.22978,0 L1630.8433,0 C1622.00674,-1.40736277e-14 1614.8433,7.163444 1614.8433,16 L1614.8433,188.593838 L1614.8433,188.593838 L1614.0805,188.593838 L1494.48678,7.19322911 C1491.52619,2.7025872 1486.50736,-9.8806031e-16 1481.12861,0 L1455.39977,0 C1446.56321,1.623249e-15 1439.39977,7.163444 1439.39977,16 L1439.39977,240 C1439.39977,248.836556 1446.56321,256 1455.39977,256 L1468.78624,256 C1477.6228,256 1484.78624,248.836556 1484.78624,240 Z M1764.3517,240 L1764.3517,169.94958 L1764.3517,169.94958 L1803.2544,133.736695 L1887.70844,249.43345 C1890.72071,253.560068 1895.52259,256 1900.63167,256 L1922.25088,256 C1930.42479,256 1937.05106,249.373735 1937.05106,241.199823 C1937.05106,237.977226 1935.99923,234.842687 1934.05537,232.272373 L1835.67331,102.184874 L1835.67331,102.184874 L1922.97468,20.1150916 C1927.6572,15.7131715 1927.88468,8.34877506 1923.48276,3.66625186 C1921.28346,1.32676344 1918.21523,7.96580757e-15 1915.0043,0 L1892.07725,0 C1887.9446,-1.01720072e-15 1883.97224,1.59904513 1880.99214,4.46222975 L1764.3517,116.526611 L1764.3517,116.526611 L1764.3517,16 C1764.3517,7.163444 1757.18826,-1.623249e-15 1748.3517,0 L1732.67683,0 C1723.84027,1.623249e-15 1716.67683,7.163444 1716.67683,16 L1716.67683,240 C1716.67683,248.836556 1723.84027,256 1732.67683,256 L1748.3517,256 C1757.18826,256 1764.3517,248.836556 1764.3517,240 Z"></path>
                </g>
            </g>
        </g>
    </g>
</svg>