<?xml version="1.0" encoding="UTF-8"?>
<svg width="1280px" height="1280px" viewBox="0 0 1280 1280" version="1.1" xmlns="http://www.w3.org/2000/svg" xmlns:xlink="http://www.w3.org/1999/xlink">
    <title>logo</title>
    <defs>
        <path d="M149.971038,140 L149.971038,640 C149.971038,673.137085 176.833953,700 209.971038,700 L319.954354,700 C353.091439,700 379.954354,673.137085 379.954354,640 L379.954354,320 C379.954354,308.954305 388.908659,300 399.954354,300 L610,300 L610,300 L620,300 C774.63973,300 900,425.36027 900,580 L900,690 C900,839.116882 779.116882,960 630,960 L630,960 L630,960 C602.385763,960 580,982.385763 580,1010 L580,1130 C580,1163.13708 606.862915,1190 640,1190 L640,1190 L640,1190 L650,1190 C915.09668,1190 1130,975.09668 1130,710 L1130,560 C1130,294.90332 915.09668,80 650,80 L209.971038,80 C176.833953,80 149.971038,106.862915 149.971038,140 Z" id="path-1"></path>
    </defs>
    <g id="页面-1" stroke="none" stroke-width="1" fill="none" fill-rule="evenodd">
        <g id="logo">
            <rect id="矩形" x="0" y="0" width="1280" height="1280"></rect>
            <path d="M690,480 C723.137085,480 750,506.862915 750,540 L750,680 C750,713.137085 723.137085,740 690,740 L590.057,740 L472.386825,890.897434 L470,888.027 L470,1130 C470,1163.13708 443.137085,1190 410,1190 L210,1190 C176.862915,1190 150,1163.13708 150,1130 L150,860 C150,826.862915 176.862915,800 210,800 L453.936,800 L530,704.982 L530,540 C530,506.862915 556.862915,480 590,480 L690,480 Z" id="形状结合" fill="#69C0FF"></path>
            <mask id="mask-2" fill="white">
                <use xlink:href="#path-1"></use>
            </mask>
            <use id="路径-8" fill="#4678FF" xlink:href="#path-1"></use>
        </g>
    </g>
</svg>